<svg xmlns="http://www.w3.org/2000/svg" width="432" height="506" viewBox="0 0 432 506">
  <g fill="#F8FCEB">
    <path d="M31.541 164.715L30.247 164.715C13.659 164.715.134 178.283.134 194.828L.134 325.935C.134 342.545 13.659 356.069 30.247 356.069L31.563 356.069C48.151 356.069 61.676 342.501 61.676 325.935L61.676 194.827C61.654 178.283 48.108 164.715 31.541 164.715zM76.085 376.54C76.085 391.769 88.531 404.172 103.76 404.172L133.334 404.172 133.334 474.989C133.334 491.62 146.902 505.145 163.447 505.145L164.741 505.145C181.351 505.145 194.897 491.599 194.897 474.989L194.897 404.172 236.227 404.172 236.227 474.989C236.227 491.62 249.838 505.145 266.383 505.145L267.656 505.145C284.265 505.145 297.79 491.599 297.79 474.989L297.79 404.172 327.385 404.172C342.592 404.172 355.039 391.769 355.039 376.54L355.039 169.525 76.085 169.525 76.085 376.54zM285.041 43.983L308.532 7.723C310.042 5.436 309.373 2.309 307.065.82 304.779-.69 301.651-.064 300.162 2.287L275.809 39.799C257.539 32.314 237.133 28.108 215.583 28.108 194.012 28.108 173.649 32.314 155.336 39.799L131.026 2.287C129.538-.064 126.388-.69 124.08.82 121.772 2.308 121.103 5.436 122.613 7.723L146.125 43.983C103.738 64.756 75.157 103.907 75.157 148.817 75.157 151.578 75.33 154.296 75.567 156.992L355.62 156.992C355.857 154.296 356.008 151.578 356.008 148.817 356.009 103.907 327.406 64.756 285.041 43.983zM150.655 108.911C143.213 108.911 137.173 102.914 137.173 95.451 137.173 87.988 143.213 82.012 150.655 82.012 158.14 82.012 164.137 87.987 164.137 95.451 164.137 102.915 158.097 108.911 150.655 108.911zM280.49 108.911C273.048 108.911 267.008 102.914 267.008 95.451 267.008 87.988 273.048 82.012 280.49 82.012 287.953 82.012 293.95 87.987 293.95 95.451 293.95 102.914 287.953 108.911 280.49 108.911zM400.876 164.715L399.625 164.715C383.037 164.715 369.469 178.283 369.469 194.828L369.469 325.935C369.469 342.545 383.059 356.069 399.625 356.069L400.898 356.069C417.507 356.069 431.011 342.501 431.011 325.935L431.011 194.827C431.011 178.283 417.464 164.715 400.876 164.715z"/>
  </g>
</svg>
