<svg xmlns="http://www.w3.org/2000/svg" width="479" height="479" viewBox="0 0 479 479">
  <path fill="#F8FCEB" d="M443.7,239.8 C464.2,230.2 478.5,209.6 478.5,185.5 C478.5,152.3 439.5,125.4 406.3,125.4 C380.4,125.4 349.4,140.2 320.2,159 C339.1,129.8 353.8,98.7 353.8,72.9 C353.8,39.7 326.9,0.7 293.7,0.7 C269.6,0.7 248.9,15 239.4,35.5 C229.8,15 209.2,0.7 185.1,0.7 C151.9,0.7 125,39.7 125,72.9 C125,98.8 139.8,129.8 158.6,159.1 C129.4,140.3 98.3,125.5 72.4,125.5 C39,125.3 0,152.2 0,185.4 C0,209.5 14.3,230.2 34.8,239.7 C14.3,249.4 0,270 0,294.1 C0,327.3 39,354.2 72.2,354.2 C98.1,354.2 129.1,339.4 158.4,320.6 C139.5,349.8 124.8,380.9 124.8,406.8 C124.8,440 151.7,479 184.9,479 C209,479 229.7,464.7 239.2,444.2 C248.8,464.7 269.4,479 293.5,479 C326.7,479 353.6,440 353.6,406.8 C353.6,380.9 338.8,349.9 320,320.6 C349.2,339.5 380.3,354.2 406.2,354.2 C439.4,354.2 478.4,327.3 478.4,294.1 C478.4,270 464.2,249.4 443.7,239.8 Z"/>
</svg>
