<?xml version="1.0" encoding="utf-8"?>
<!-- Generator: Adobe Illustrator 19.0.0, SVG Export Plug-In . SVG Version: 6.00 Build 0)  -->
<svg version="1.1" id="Calque_1" xmlns:x="&ns_extend;" xmlns:i="&ns_ai;" xmlns:graph="&ns_graphs;"
	 xmlns="http://www.w3.org/2000/svg" xmlns:xlink="http://www.w3.org/1999/xlink" x="0px" y="0px" viewBox="0 0 112.9 112.9"
	 style="enable-background:new 0 0 112.9 112.9;" xml:space="preserve">
<style type="text/css">
	.st0{fill:#FFFFFF;stroke:#000000;stroke-miterlimit:10;}
	.st1{stroke:#000000;stroke-miterlimit:10;}
</style>
<g id="XMLID_1_">
	<path id="XMLID_22_" class="extern" d="M7.2,56c0,0,0.1-0.1,0.3-0.4c0.2-0.3,0.5-0.7,0.8-1.2c0.4-0.5,0.8-1.1,1.3-1.7c0.3-0.3,0.5-0.7,0.8-1.1
		c0.3-0.3,0.6-0.7,0.9-1.1c0.7-0.8,1.4-1.6,2.2-2.5c0.8-0.9,1.7-1.7,2.6-2.6c1.8-1.8,3.9-3.6,6.2-5.3c4.5-3.5,9.8-6.5,15.5-8.6
		c5.7-2.1,11.7-3.2,17.7-3.3c6-0.1,12.1,0.9,17.7,3c5.7,2,10.9,5.1,15.5,8.6c2.3,1.7,4.3,3.6,6.2,5.4c1.8,1.8,3.4,3.6,4.8,5.2
		c0.7,0.8,1.2,1.5,1.8,2.2c0.5,0.7,0.9,1.3,1.3,1.8c0.4,0.5,0.6,0.9,0.8,1.2c0.2,0.3,0.3,0.4,0.3,0.4v1c0,0-0.1,0.1-0.3,0.4
		c-0.2,0.3-0.5,0.7-0.8,1.2c-0.4,0.5-0.8,1.1-1.3,1.8c-0.5,0.7-1.1,1.4-1.8,2.2c-1.3,1.6-2.9,3.4-4.8,5.2c-1.8,1.8-3.9,3.7-6.2,5.4
		c-4.5,3.5-9.8,6.5-15.5,8.6c-5.7,2-11.7,3-17.7,3c-6-0.1-12.1-1.2-17.7-3.3c-5.7-2.1-10.9-5.1-15.5-8.6c-2.3-1.7-4.3-3.5-6.2-5.3
		c-0.9-0.9-1.8-1.7-2.6-2.6c-0.8-0.9-1.5-1.6-2.2-2.5c-0.3-0.4-0.6-0.8-0.9-1.1c-0.3-0.4-0.6-0.7-0.8-1.1c-0.5-0.6-0.9-1.2-1.3-1.7
		c-0.4-0.5-0.6-0.9-0.8-1.2C7.3,57.1,7.2,57,7.2,57V56z"/>
</g>
<circle id="XMLID_2_" class="eye" cx="55.5" cy="56.5" r="21.7"/>
<circle id="XMLID_16_" class="pupille" cx="55.5" cy="56.5" r="5.7"/>
</svg>
